<svg width="69" height="69" viewBox="0 0 69 69" fill="none" xmlns="http://www.w3.org/2000/svg">
<circle cx="34.5" cy="34.5" r="33.5" stroke="white" stroke-width="2"/>
<g clip-path="url(#clip0_287_46)">
<path d="M34.2283 41.5893C34.2538 41.6148 34.2806 41.6389 34.3085 41.6618C34.3208 41.6719 34.3337 41.6806 34.3463 41.6901C34.3622 41.702 34.3777 41.7143 34.3942 41.7253C34.4097 41.7356 34.4257 41.7445 34.4414 41.754C34.4561 41.7628 34.4705 41.772 34.4857 41.7801C34.5019 41.7888 34.5186 41.7962 34.5352 41.8039C34.5508 41.8114 34.5662 41.8192 34.5823 41.8258C34.5985 41.8325 34.615 41.838 34.6315 41.8438C34.6486 41.85 34.6655 41.8565 34.683 41.8618C34.6995 41.8668 34.7162 41.8705 34.7328 41.8746C34.7507 41.8792 34.7683 41.8842 34.7865 41.8878C34.8057 41.8916 34.825 41.8938 34.8443 41.8966C34.8602 41.8989 34.8759 41.9019 34.8921 41.9035C34.9279 41.907 34.9638 41.909 34.9998 41.909C35.0357 41.909 35.0716 41.9071 35.1073 41.9035C35.1238 41.9019 35.1396 41.8989 35.1558 41.8965C35.1749 41.8938 35.1939 41.8916 35.2129 41.8878C35.2314 41.8842 35.2495 41.879 35.2677 41.8744C35.2839 41.8703 35.3003 41.8668 35.3163 41.8619C35.3342 41.8565 35.3515 41.8498 35.369 41.8435C35.3851 41.8377 35.4013 41.8325 35.4171 41.8259C35.4335 41.8191 35.4491 41.8112 35.4651 41.8037C35.4814 41.7959 35.4979 41.7887 35.5139 41.7801C35.5292 41.772 35.5436 41.7627 35.5584 41.7538C35.5742 41.7444 35.5902 41.7355 35.6055 41.7252C35.6217 41.7144 35.6369 41.7024 35.6523 41.6908C35.6654 41.681 35.6787 41.672 35.6913 41.6617C35.7179 41.6399 35.7433 41.6168 35.7676 41.5927C35.7688 41.5915 35.7701 41.5906 35.7712 41.5895L40.8622 36.4987C41.2883 36.0727 41.2883 35.382 40.8622 34.9559C40.4363 34.53 39.7455 34.5299 39.3195 34.9559L36.0907 38.1845V24.8182C36.0907 24.2157 35.6022 23.7273 34.9998 23.7273C34.3973 23.7273 33.9089 24.2157 33.9089 24.8182V38.1844L30.6803 34.9559C30.2544 34.5299 29.5636 34.5299 29.1376 34.9559C28.7115 35.382 28.7115 36.0727 29.1376 36.4987L34.2283 41.5893Z" fill="white"/>
<path d="M45.9091 34.6364C45.3066 34.6364 44.8182 35.1248 44.8182 35.7273V44.0909H25.1818V35.7273C25.1818 35.1248 24.6934 34.6364 24.0909 34.6364C23.4884 34.6364 23 35.1248 23 35.7273V45.1818C23 45.7843 23.4884 46.2727 24.0909 46.2727H45.9091C46.5116 46.2727 47 45.7843 47 45.1818V35.7273C47 35.1248 46.5116 34.6364 45.9091 34.6364Z" fill="white"/>
</g>
<defs>
<clipPath id="clip0_287_46">
<rect width="24" height="24" fill="white" transform="translate(23 23)"/>
</clipPath>
</defs>
</svg>
