<svg width="184" height="80" viewBox="0 0 184 119" fill="none" xmlns="http://www.w3.org/2000/svg">
<path d="M63.4401 52.382C60.7843 52.382 58.4195 51.8181 56.3458 50.6903C54.272 49.5261 52.6349 47.9071 51.4343 45.8334C50.2701 43.7233 49.688 41.2493 49.688 38.4116C49.688 35.5375 50.2883 33.0454 51.4889 30.9352C52.7258 28.8251 54.3994 27.2062 56.5095 26.0783C58.6196 24.9141 60.9844 24.332 63.6038 24.332C66.2233 24.332 68.5881 24.9141 70.6982 26.0783C72.8083 27.2062 74.4818 28.8251 75.7188 30.9352C76.9558 33.009 77.5742 35.4647 77.5742 38.3024C77.5742 41.1766 76.9376 43.6687 75.6642 45.7788C74.4273 47.8889 72.7355 49.5261 70.589 50.6903C68.4789 51.8181 66.0959 52.382 63.4401 52.382ZM63.3855 46.1062C64.5134 46.1062 65.5866 45.8334 66.6053 45.2877C67.624 44.7056 68.4607 43.8506 69.1156 42.7228C69.7705 41.5586 70.0979 40.0851 70.0979 38.3024C70.0979 36.5925 69.7886 35.1737 69.1702 34.0458C68.5517 32.8816 67.7331 32.0267 66.7144 31.481C65.7321 30.8989 64.6589 30.6078 63.4947 30.6078C62.3669 30.6078 61.3118 30.8989 60.3295 31.481C59.3836 32.0267 58.6196 32.8816 58.0375 34.0458C57.4554 35.1737 57.1643 36.6289 57.1643 38.4116C57.1643 40.1215 57.4372 41.5586 57.9829 42.7228C58.565 43.8506 59.329 44.7056 60.2749 45.2877C61.2208 45.8334 62.2577 46.1062 63.3855 46.1062ZM87.8862 43.1048C88.1045 44.0143 88.4683 44.7056 88.9776 45.1785C89.5234 45.6515 90.1236 45.9971 90.7785 46.2154C91.4698 46.3973 92.161 46.4882 92.8522 46.4882C94.1256 46.4882 95.1261 46.2518 95.8537 45.7788C96.5813 45.2695 96.9451 44.6328 96.9451 43.8688C96.9451 43.2139 96.6905 42.7046 96.1811 42.3408C95.6718 41.9406 95.0169 41.6313 94.2165 41.413C93.4525 41.1948 92.634 40.9947 91.7608 40.8128C90.7785 40.5581 89.7234 40.2852 88.5956 39.9942C87.5042 39.6667 86.4673 39.212 85.485 38.6299C84.5027 38.0478 83.6842 37.302 83.0293 36.3924C82.4108 35.4465 82.1016 34.2641 82.1016 32.8453C82.1016 31.1353 82.5563 29.6619 83.4659 28.4249C84.3754 27.1516 85.6487 26.1511 87.2859 25.4235C88.9594 24.6958 90.8877 24.332 93.0705 24.332C95.6536 24.332 97.8365 24.8778 99.6192 25.9692C101.402 27.0606 102.693 28.625 103.494 30.6624L97.3817 32.4087C97.1634 31.8993 96.836 31.481 96.3994 31.1535C95.9628 30.8261 95.4353 30.5896 94.8168 30.4441C94.2347 30.2986 93.6344 30.2258 93.016 30.2258C91.9609 30.2258 91.0877 30.4441 90.3965 30.8807C89.7053 31.2809 89.3596 31.8448 89.3596 32.5724C89.3596 33.009 89.487 33.3728 89.7416 33.6638C89.9963 33.9185 90.3419 34.1368 90.7785 34.3187C91.2515 34.5006 91.779 34.6643 92.3611 34.8098C92.9796 34.9554 93.6526 35.1191 94.3803 35.301C95.5081 35.592 96.6359 35.9377 97.7637 36.3379C98.9279 36.7017 99.983 37.1746 100.929 37.7567C101.911 38.3388 102.693 39.121 103.275 40.1033C103.858 41.0856 104.185 42.3226 104.258 43.8142C104.258 45.415 103.803 46.8702 102.893 48.18C101.984 49.4533 100.674 50.472 98.9643 51.236C97.2544 52 95.1806 52.382 92.7431 52.382C89.9054 52.382 87.486 51.7817 85.485 50.5811C83.5204 49.3805 82.2289 47.5069 81.6104 44.9602L87.8862 43.1048ZM115.733 47.9071L116.606 47.798V62.9144H109.621V24.714H115.952L116.388 28.0975C117.188 27.0424 118.316 26.1511 119.772 25.4235C121.227 24.6958 122.9 24.332 124.792 24.332C127.157 24.332 129.249 24.9141 131.068 26.0783C132.887 27.2425 134.306 28.8797 135.325 30.9898C136.38 33.0635 136.907 35.5193 136.907 38.357C136.907 41.1948 136.38 43.6687 135.325 45.7788C134.306 47.8889 132.887 49.5261 131.068 50.6903C129.285 51.8181 127.193 52.382 124.792 52.382C122.682 52.382 120.845 51.9454 119.28 51.0723C117.752 50.1991 116.57 49.1441 115.733 47.9071ZM129.376 38.357C129.376 36.065 128.776 34.2277 127.575 32.8453C126.411 31.4264 124.883 30.717 122.991 30.717C121.827 30.717 120.754 31.0262 119.772 31.6447C118.826 32.2268 118.062 33.0817 117.48 34.2096C116.897 35.301 116.606 36.6835 116.606 38.357C116.606 39.9942 116.897 41.3767 117.48 42.5045C118.062 43.6323 118.826 44.5055 119.772 45.1239C120.754 45.706 121.827 45.9971 122.991 45.9971C124.883 45.9971 126.411 45.3058 127.575 43.9234C128.776 42.5045 129.376 40.649 129.376 38.357ZM154.624 52.382C151.896 52.382 149.494 51.7817 147.421 50.5811C145.347 49.3805 143.728 47.707 142.564 45.5605C141.436 43.414 140.872 40.9401 140.872 38.1387C140.872 35.4465 141.436 33.0635 142.564 30.9898C143.728 28.9161 145.311 27.2971 147.312 26.1329C149.313 24.9323 151.605 24.332 154.188 24.332C156.807 24.332 159.117 24.8959 161.118 26.0238C163.119 27.1516 164.665 28.7342 165.757 30.7715C166.885 32.7725 167.449 35.1191 167.449 37.8113C167.449 38.2115 167.412 38.6663 167.34 39.1756C167.303 39.6486 167.249 40.1579 167.176 40.7036H148.403C148.549 41.8678 148.912 42.8683 149.494 43.7051C150.113 44.5055 150.859 45.1421 151.732 45.6151C152.641 46.0517 153.66 46.2699 154.788 46.2699C156.134 46.2699 157.335 45.9971 158.39 45.4514C159.481 44.9057 160.263 44.1598 160.736 43.2139L166.903 45.0694C165.811 47.3978 164.193 49.1986 162.046 50.472C159.9 51.7453 157.426 52.382 154.624 52.382ZM159.809 35.6284C159.772 34.6097 159.499 33.7002 158.99 32.8998C158.481 32.0631 157.808 31.4264 156.971 30.9898C156.134 30.5169 155.206 30.2804 154.188 30.2804C153.278 30.2804 152.423 30.5169 151.623 30.9898C150.822 31.4264 150.131 32.0449 149.549 32.8453C149.003 33.6456 148.64 34.5734 148.458 35.6284H159.809ZM172.773 12.7082H179.758V52H172.773V12.7082Z" fill="white"/>
<path d="M11.1766 104.051H3.75078V65.5465H12.2217L24.4879 94.3695L36.7542 65.5465H45.2251V104.051H37.7993V79.1879L27.4033 104.051H21.5726L11.1766 79.1879V104.051ZM64.8428 104.436C62.1659 104.436 59.7823 103.867 57.6921 102.73C55.6019 101.557 53.9517 99.9251 52.7416 97.8349C51.5681 95.708 50.9814 93.2144 50.9814 90.3541C50.9814 87.4571 51.5865 84.9452 52.7966 82.8183C54.0434 80.6914 55.7302 79.0596 57.8571 77.9228C59.984 76.7493 62.3676 76.1626 65.0079 76.1626C67.6481 76.1626 70.0317 76.7493 72.1586 77.9228C74.2855 79.0596 75.9723 80.6914 77.2191 82.8183C78.4659 84.9085 79.0893 87.3838 79.0893 90.2441C79.0893 93.141 78.4476 95.653 77.1641 97.7798C75.9173 99.9067 74.2122 101.557 72.0486 102.73C69.9217 103.867 67.5198 104.436 64.8428 104.436ZM64.7878 98.1099C65.9246 98.1099 67.0064 97.8349 68.0332 97.2848C69.06 96.6981 69.9034 95.8363 70.5634 94.6995C71.2235 93.5261 71.5535 92.0409 71.5535 90.2441C71.5535 88.5205 71.2418 87.0904 70.6184 85.9536C69.995 84.7802 69.17 83.9184 68.1432 83.3683C67.1531 82.7816 66.0713 82.4882 64.8978 82.4882C63.7611 82.4882 62.6976 82.7816 61.7075 83.3683C60.7541 83.9184 59.984 84.7802 59.3973 85.9536C58.8105 87.0904 58.5172 88.5572 58.5172 90.3541C58.5172 92.0776 58.7922 93.5261 59.3423 94.6995C59.929 95.8363 60.6991 96.6981 61.6525 97.2848C62.6059 97.8349 63.651 98.1099 64.7878 98.1099ZM89.17 76.5476L95.7157 96.1297L102.316 76.5476H109.852L99.6211 104.051H91.7553L81.5792 76.5476H89.17ZM142.248 104.436C139.498 104.436 137.078 103.83 134.988 102.62C132.897 101.41 131.266 99.7234 130.092 97.5598C128.955 95.3963 128.387 92.9027 128.387 90.079C128.387 87.3654 128.955 84.9635 130.092 82.8733C131.266 80.7831 132.861 79.1512 134.878 77.9778C136.895 76.7676 139.205 76.1626 141.808 76.1626C144.449 76.1626 146.777 76.731 148.794 77.8678C150.811 79.0045 152.369 80.5997 153.47 82.6533C154.606 84.6701 155.175 87.0354 155.175 89.749C155.175 90.1524 155.138 90.6108 155.065 91.1242C155.028 91.6009 154.973 92.1143 154.9 92.6643H135.978C136.124 93.8378 136.491 94.8462 137.078 95.6896C137.701 96.4964 138.453 97.1381 139.333 97.6148C140.25 98.0549 141.277 98.2749 142.413 98.2749C143.77 98.2749 144.98 97.9999 146.044 97.4498C147.144 96.8998 147.932 96.148 148.409 95.1946L154.625 97.0648C153.525 99.4117 151.893 101.227 149.729 102.51C147.566 103.794 145.072 104.436 142.248 104.436ZM147.474 87.5488C147.437 86.522 147.162 85.6052 146.649 84.7985C146.135 83.9551 145.457 83.3133 144.614 82.8733C143.77 82.3966 142.835 82.1582 141.808 82.1582C140.892 82.1582 140.03 82.3966 139.223 82.8733C138.416 83.3133 137.72 83.9367 137.133 84.7435C136.583 85.5502 136.216 86.4853 136.033 87.5488H147.474ZM165.492 95.0846C165.712 96.0013 166.079 96.6981 166.592 97.1748C167.142 97.6515 167.747 97.9999 168.408 98.2199C169.104 98.4032 169.801 98.4949 170.498 98.4949C171.781 98.4949 172.79 98.2566 173.523 97.7798C174.256 97.2665 174.623 96.6247 174.623 95.8546C174.623 95.1946 174.366 94.6812 173.853 94.3145C173.34 93.9111 172.68 93.5994 171.873 93.3794C171.103 93.1594 170.278 92.9577 169.398 92.7743C168.408 92.5176 167.344 92.2426 166.207 91.9492C165.107 91.6192 164.062 91.1608 163.072 90.5741C162.082 89.9874 161.257 89.2356 160.597 88.3189C159.973 87.3654 159.662 86.1736 159.662 84.7435C159.662 83.02 160.12 81.5348 161.037 80.288C161.954 79.0045 163.237 77.9961 164.887 77.2627C166.574 76.5293 168.518 76.1626 170.718 76.1626C173.321 76.1626 175.522 76.7126 177.318 77.8128C179.115 78.9129 180.417 80.4897 181.224 82.5433L175.063 84.3034C174.843 83.79 174.513 83.3683 174.073 83.0383C173.633 82.7083 173.101 82.4699 172.478 82.3232C171.891 82.1765 171.286 82.1032 170.663 82.1032C169.599 82.1032 168.719 82.3232 168.022 82.7633C167.326 83.1667 166.977 83.735 166.977 84.4685C166.977 84.9085 167.106 85.2752 167.362 85.5686C167.619 85.8253 167.967 86.0453 168.408 86.2286C168.884 86.412 169.416 86.577 170.003 86.7237C170.626 86.8704 171.305 87.0354 172.038 87.2187C173.175 87.5121 174.311 87.8605 175.448 88.2639C176.622 88.6306 177.685 89.1073 178.639 89.694C179.629 90.2807 180.417 91.0691 181.004 92.0592C181.591 93.0494 181.921 94.2962 181.994 95.7996C181.994 97.4131 181.536 98.88 180.619 100.2C179.702 101.484 178.382 102.51 176.658 103.28C174.935 104.051 172.845 104.436 170.388 104.436C167.527 104.436 165.089 103.83 163.072 102.62C161.092 101.41 159.79 99.5217 159.167 96.9548L165.492 95.0846Z" fill="white"/>
<path d="M116.653 104.371V99.4232H124.675V104.371H116.653Z" fill="#8100FF"/>
<path d="M116.653 97.7927V92.7833H124.675V97.7927H116.653Z" fill="#F00000"/>
<path d="M116.653 91.153V76.9736H124.675V91.153H116.653Z" fill="white"/>
<path d="M116.068 69.8654C116.068 67.3266 118.126 65.2685 120.665 65.2685C123.203 65.2685 125.262 67.3266 125.262 69.8654C125.262 72.4042 123.203 74.4623 120.665 74.4623C118.126 74.4623 116.068 72.4042 116.068 69.8654Z" fill="white"/>
<path d="M45.9819 27.7575V33.6012V37.6749C42.9259 46.0536 34.8871 52.0357 25.4511 52.0357C13.3853 52.0357 3.604 42.2544 3.604 30.1885C3.604 18.1227 13.3853 8.3414 25.4511 8.3414C33.6067 8.3414 40.7186 12.8102 44.4716 19.4328C44.6258 19.7049 44.7743 19.9806 44.917 20.2599L36.5227 22.8461C34.2379 19.073 30.3104 16.5831 25.8487 16.5831C18.793 16.5831 13.0733 22.8101 13.0733 30.4914C13.0733 38.1728 18.7931 44.3997 25.8487 44.3997C30.4982 44.3997 34.5675 41.6958 36.8024 37.6535V27.7576H38.3775L45.9819 27.7575Z" fill="white"/>
<path d="M30.2252 35.2357V27.7575H34.9595V35.2357H30.2252Z" fill="#F00000"/>
<path d="M23.6951 35.2357V27.7575H28.3827V35.2357H23.6951Z" fill="#8100FF"/>
</svg>
