<svg width="24" height="27" viewBox="0 0 24 27" fill="none" xmlns="http://www.w3.org/2000/svg">
<path d="M3.2314 26.3672C2.7937 26.3664 2.36375 26.2517 1.98384 26.0343C1.12837 25.5495 0.596558 24.6085 0.596558 23.5869V2.91312C0.596558 1.8887 1.12837 0.950532 1.98384 0.465767C2.3728 0.24223 2.81466 0.127276 3.26324 0.132919C3.71182 0.138562 4.15064 0.264596 4.53385 0.497847L22.2028 11.0743C22.5711 11.3052 22.8746 11.6258 23.0851 12.0061C23.2955 12.3864 23.4059 12.814 23.4059 13.2486C23.4059 13.6832 23.2955 14.1108 23.0851 14.4911C22.8746 14.8714 22.5711 15.192 22.2028 15.4229L4.531 26.0022C4.13884 26.2393 3.68966 26.3655 3.2314 26.3672Z" fill="black"/>
</svg>
