<svg width="17" height="17" viewBox="0 0 17 17" fill="none" xmlns="http://www.w3.org/2000/svg">
<path d="M9.32095 0.881466L11.2383 4.76657C11.3717 5.03679 11.6295 5.22402 11.9277 5.26728L16.2153 5.89033C16.9663 5.99955 17.266 6.92225 16.7227 7.45168L13.6202 10.4758C13.4046 10.6861 13.3061 10.9893 13.3571 11.2861L14.0894 15.5563C14.2178 16.3042 13.4327 16.8744 12.761 16.5215L8.92627 14.5056C8.6596 14.3655 8.34081 14.3655 8.07414 14.5056L4.23939 16.5215C3.56776 16.8747 2.78265 16.3042 2.91102 15.5563L3.64329 11.2861C3.69435 10.9893 3.59577 10.6861 3.38017 10.4758L0.277688 7.45168C-0.265575 6.92189 0.0340706 5.9992 0.785135 5.89033L5.07272 5.26728C5.37095 5.22402 5.62875 5.03679 5.76209 4.76657L7.67946 0.881466C8.01492 0.20097 8.98514 0.20097 9.32095 0.881466Z" fill="url(#paint0_linear_20_611)"/>
<defs>
<linearGradient id="paint0_linear_20_611" x1="8.50021" y1="0.371094" x2="8.50021" y2="16.6287" gradientUnits="userSpaceOnUse">
<stop offset="0.412313" stop-color="#FF0023"/>
<stop offset="1" stop-color="#8800FF"/>
</linearGradient>
</defs>
</svg>
