<svg width="17" height="17" viewBox="0 0 17 17" fill="none" xmlns="http://www.w3.org/2000/svg">
<path d="M8.49994 0C3.81311 0 0.000244141 3.81307 0.000244141 8.4999C0.000244141 13.1869 3.81311 17 8.49994 17C13.1868 17 16.9998 13.1869 16.9998 8.4999C16.9998 3.81307 13.1866 0 8.49994 0ZM8.49994 15.7711C4.49085 15.7711 1.22894 12.5092 1.22894 8.4999C1.22894 4.49061 4.49065 1.2289 8.49994 1.2289C12.5092 1.2289 15.7709 4.49061 15.7709 8.4999C15.7709 12.5092 12.5092 15.7711 8.49994 15.7711Z" fill="#B5B5B5"/>
<path d="M10.9591 9.28238C10.9559 9.28238 10.953 9.28238 10.9497 9.28238L9.11415 9.30982V4.50605C9.11415 4.16667 8.83909 3.8916 8.4997 3.8916C8.16032 3.8916 7.88525 4.16667 7.88525 4.50605V9.9337C7.88525 9.93493 7.88566 9.93616 7.88566 9.93738C7.88566 9.93943 7.88525 9.94128 7.88525 9.94291C7.88566 9.9679 7.89037 9.99146 7.89365 10.0154C7.8957 10.0304 7.8959 10.0457 7.89877 10.0605C7.9043 10.0869 7.91352 10.1115 7.92233 10.1363C7.92683 10.1492 7.9297 10.1627 7.93502 10.175C7.94567 10.2002 7.96001 10.2231 7.97373 10.2467C7.98008 10.2571 7.9848 10.2686 7.99155 10.2788C8.00712 10.3015 8.02576 10.3218 8.04419 10.3425C8.05197 10.3511 8.05832 10.3609 8.06652 10.3693C8.08638 10.389 8.10871 10.4056 8.13103 10.4226C8.14005 10.4294 8.14803 10.4375 8.15725 10.4439C8.18142 10.4603 8.20784 10.4732 8.23426 10.4859C8.24348 10.4902 8.25167 10.4963 8.26109 10.5002C8.29182 10.5131 8.32459 10.5221 8.35777 10.5301C8.36391 10.5316 8.36965 10.5344 8.37599 10.5357C8.41573 10.5436 8.4569 10.5481 8.49909 10.5481C8.50216 10.5481 8.50544 10.5481 8.50851 10.5481L10.968 10.5113C11.3071 10.5062 11.5781 10.2268 11.5732 9.88761C11.5685 9.55151 11.2942 9.28238 10.9591 9.28238Z" fill="#B5B5B5"/>
</svg>
